<svg width="34" height="34" viewBox="0 0 34 34" fill="none" xmlns="http://www.w3.org/2000/svg" xmlns:xlink="http://www.w3.org/1999/xlink">
<path d="M30.97,32.308L18.446,19.784C17.446,20.636 16.296,21.295 14.996,21.762C13.696,22.229 12.389,22.462 11.076,22.462C7.873,22.462 5.163,21.353 2.944,19.136C0.725,16.919 -0.384,14.209 -0.384,11.006C-0.384,7.803 0.724,5.092 2.94,2.872C5.156,0.652 7.865,-0.459 11.068,-0.462C14.271,-0.465 16.983,0.645 19.204,2.866C21.425,5.087 22.536,7.799 22.536,11C22.536,12.389 22.29,13.734 21.798,15.034C21.306,16.334 20.659,17.446 19.858,18.37L32.382,30.892L30.97,32.308ZM11.078,20.46C13.731,20.46 15.971,19.547 17.798,17.72C19.625,15.893 20.538,13.653 20.538,10.998C20.538,8.343 19.625,6.103 17.798,4.278C15.971,2.453 13.731,1.539 11.078,1.538C8.425,1.537 6.184,2.45 4.356,4.278C2.528,6.106 1.615,8.346 1.616,10.998C1.617,13.65 2.531,15.89 4.356,17.718C6.181,19.546 8.421,20.459 11.076,20.458Z" fill="#000000"/>
</svg>
